<?xml version="1.0" encoding="utf-8"?>
<!-- Generator: Adobe Illustrator 19.0.0, SVG Export Plug-In . SVG Version: 6.00 Build 0)  -->
<svg version="1.2" baseProfile="tiny" id="Capa_1" xmlns="http://www.w3.org/2000/svg" xmlns:xlink="http://www.w3.org/1999/xlink"
	 x="0px" y="0px" width="300px" height="519px" viewBox="0 0 300 519" xml:space="preserve">
<g>
	<path fill="#FFFFFF" d="M18.3,200.1c1.2,0,63.7,0,129,0c1.8,0,3.6,0,5.4,0c65.3,0,127.8,0,129,0c2.6,0,14.2,0,14.2-12.6
		c0-31.6-8.7-113.4-94.1-137C200,34.3,190.9,7.2,151,6.8v0c-0.3,0-0.6,0-1,0c0,0,0,0,0,0c0,0,0,0,0,0c-0.3,0-0.6,0-1,0v0
		c-39.9,0.4-49,27.5-50.9,43.8C12.7,74.1,4.1,155.9,4.1,187.5C4.1,200.1,15.7,200.1,18.3,200.1z M149.4,23.6L149.4,23.6
		c0.2,0,0.4,0,0.6,0c0.2,0,0.4,0,0.6,0v0c22.4,0.3,24.1,21.8,24.1,21.8h-0.4c-6.8-0.7-14-1.2-21.6-1.3v0c-0.9,0-1.8,0-2.7,0
		c0,0,0,0,0,0c0,0,0,0,0,0c-0.9,0-1.8,0-2.7,0v0c-7.6,0.1-14.7,0.5-21.6,1.3h-0.4C125.3,45.4,127.1,23.9,149.4,23.6z M147.3,68.4
		L147.3,68.4c0.9,0,1.8,0,2.7,0c0.9,0,1.8,0,2.7,0v0c109.1,1.4,117.7,106.4,117.7,106.4H152.7h-5.4H29.6
		C29.6,174.8,38.1,69.9,147.3,68.4z"/>
	<path fill="#FFFFFF" d="M293.8,244.5c-4.1-15.3-65.7-26.4-143-26.4c-70.6,0-129.4,10.2-142.2,23.7c-4,2.4-6.3,8.4-2.9,22.1
		c9.7,39.1,28.2,75.3,47.9,114.6c14.8,31.2,74,117.1,76,120.1c8.2,12.2,17.7,13.6,20.3,13.7l0,0c0,0,0.1,0,0.3,0c0.2,0,0.3,0,0.3,0
		l0,0c2.6-0.2,12.1-1.5,20.3-13.7c2-3,61.2-88.9,76-120.1c19.6-39.3,38.2-75.6,47.9-114.6C296.8,255,296.1,248.8,293.8,244.5z
		 M193.8,232c29.6,0,53.5,5,53.5,11.2c0,6.2-24,11.2-53.5,11.2c-29.6,0-53.5-5-53.5-11.2C140.3,237,164.3,232,193.8,232z
		 M166.7,263.4c0,3.5-10.8,6.3-24.2,6.3c-13.4,0-24.2-2.8-24.2-6.3c0-3.5,10.8-6.3,24.2-6.3C155.8,257.1,166.7,259.9,166.7,263.4z
		 M95.1,237.5c19.8,0,35.9,4.2,35.9,9.3c0,5.1-16.1,9.3-35.9,9.3c-19.8,0-35.9-4.2-35.9-9.3C59.2,241.6,75.3,237.5,95.1,237.5z
		 M150.5,484C128.3,451.5,50.3,340.5,32.1,265.3c26,8.6,68.9,14.8,117.9,14.8c49.8,0,93.4-6.9,119.2-16.1
		C268.9,267.7,263.2,315.9,150.5,484z"/>
</g>
</svg>
