<?xml version="1.0" encoding="utf-8"?>
<!-- Generator: Adobe Illustrator 19.0.0, SVG Export Plug-In . SVG Version: 6.00 Build 0)  -->
<svg version="1.2" baseProfile="tiny" id="Capa_1" xmlns="http://www.w3.org/2000/svg" xmlns:xlink="http://www.w3.org/1999/xlink"
	 x="0px" y="0px" width="300px" height="300px" viewBox="-99 89 300 300" xml:space="preserve">
<g id="XMLID_2_">
	<g id="XMLID_14_">
		<g id="XMLID_25_">
			<path id="XMLID_33_" fill="#19DDC6" d="M-29.7,314.5h4.1l0.3,0.3V356c0,3.5-1.9,6.4-5.8,8.7c-1.4,0.7-2.7,1.1-4,1.1h-1.7
				c-3.7,0-6.7-2.2-9-6.7c-0.4-1.3-0.6-2.3-0.6-3.2v-21.4c0-3.7,2.1-6.7,6.3-9c1.4-0.6,2.9-0.9,4.4-0.9c1.8,0,3.7,0.6,5.7,1.7v-11.5
				L-29.7,314.5z M-41.6,335.1v20.3c0.6,3.8,2.5,5.7,5.7,5.7h0.3c2.9,0,4.8-1.7,5.7-5v-20.8c0-2.5-1.1-4.3-3.4-5.3
				c-0.2-0.2-1-0.4-2.4-0.6C-39.7,329.9-41.6,331.9-41.6,335.1z"/>
			<path id="XMLID_30_" fill="#19DDC6" d="M-10.6,324.7h1.7c3.8,0,6.9,2.2,9.2,6.7c0.4,1.2,0.6,2.2,0.6,3.1v1.4
				c0,3.7-2.3,6.9-6.9,9.6c-6,4.2-9.1,7.5-9.5,9.9c0.6,3.8,2.5,5.7,5.7,5.7h0.3c3,0,4.9-1.8,5.7-5.3c0-0.3,0.1-0.5,0.3-0.5h4.1
				l0.3,0.3v0.5c0,3.9-2.3,7-6.9,9.2c-0.9,0.4-1.9,0.6-2.9,0.6h-1.7c-3.7,0-6.7-2.2-9-6.7c-0.4-1.3-0.6-2.3-0.6-3.2v-21.2
				c0-4.4,2.5-7.6,7.6-9.6L-10.6,324.7z M-15.5,346.9h0.2c2.1-1.9,5.5-4.6,10.2-7.9c0.8-1.2,1.2-2.4,1.2-3.8c0-2.8-1.6-4.7-4.7-5.7
				h-1.2c-2.9,0-4.8,1.7-5.7,5V346.9z"/>
			<path id="XMLID_28_" fill="#19DDC6" d="M6.8,314.5h4l0.3,0.3v50.7l-0.3,0.3h-4l-0.3-0.3v-50.7L6.8,314.5z"/>
			<path id="XMLID_26_" fill="#19DDC6" d="M17.1,324.7h4.1l0.3,0.3v30.2c0,2.5,1.1,4.3,3.4,5.3c0.2,0.2,1,0.4,2.4,0.6
				c2.7,0,4.6-1.5,5.7-4.4l0.2-1.5V325l0.3-0.3h4.1l0.3,0.3v47.3c0,3.5-1.9,6.4-5.8,8.7c-1.4,0.7-2.7,1.1-4,1.1h-1.5
				c-3.5,0-6.4-1.9-8.7-5.8c-0.7-1.4-1.1-2.7-1.1-4v-0.5l0.3-0.3h4.1c0.2,0,0.4,0.8,0.8,2.4c1.2,2.2,3,3.4,5.2,3.4h0.3
				c2.9,0,4.8-1.7,5.7-5v-8.1c-1.9,1.1-3.9,1.7-6,1.7c-4.6,0-8-2.5-10.1-7.6l-0.3-2.3v-31L17.1,324.7z"/>
		</g>
		<g id="XMLID_15_">
			<path id="XMLID_23_" fill="#19DDC6" d="M65.2,314.5h1.4c3.5,0,6.2,1.9,8,5.8c0.5,1.4,0.7,2.7,0.6,4l-0.1,0.5l-0.3,0.3h-4.1
				c-0.2,0-0.3-0.9-0.4-2.6c-1.1-2.1-2.7-3.2-4.8-3.2H65c-2.5,0-4.5,1.4-5.9,4.1c-0.3,0.5-0.5,1.1-0.6,2L56.2,343h5.6l0.3,0.3
				l-0.5,4.1l-0.3,0.3h-5.6l-2.3,17.9l-0.3,0.3H49l-0.3-0.3l2.3-17.9h-2.9l-0.3-0.3l0.5-4.1l0.3-0.3h2.9l2.4-18.3
				c0.5-3.7,2.8-6.7,7-9C62.4,314.9,63.8,314.5,65.2,314.5z"/>
			<path id="XMLID_20_" fill="#19DDC6" d="M84.8,324.7h1.7c3.6,0,6.3,2.2,8.2,6.6c0.2,1.5,0.3,2.6,0.2,3.4l-2.8,21.2
				c-0.6,4.3-3.5,7.5-8.9,9.6l-2,0.3h-1.7c-3.8,0-6.6-2.2-8.3-6.7c-0.3-1.2-0.3-2.2-0.2-3.1l0.2-1.4c0.5-3.7,3.2-6.9,8.1-9.6
				c6.9-4.5,10.5-7.9,10.8-10.2c0.3-2.5-1-4.3-4-5.3h-1.4c-2.7,0-4.7,1.6-6.1,4.7c-0.1,0.7-0.2,1.1-0.4,1.1H74l-0.3-0.3l0.1-0.5
				c0.5-3.9,3.2-7,8.1-9.2C82.8,324.9,83.8,324.7,84.8,324.7z M75.8,355.4c-0.4,2.8,1,4.7,4,5.7H81c2.9,0,5-1.7,6.3-5l1.6-12.4h-0.2
				c-2.4,1.9-6.1,4.6-11.3,7.9C76.6,352.8,76,354.1,75.8,355.4z"/>
			<path id="XMLID_18_" fill="#19DDC6" d="M111.4,324.7h1.8c3.7,0,6.4,2.2,8.1,6.7c0.2,1.2,0.3,2.3,0.2,3.2v0.3l-0.3,0.3h-4.1
				c-0.2,0-0.3-0.8-0.4-2.4c-1.1-2.2-2.5-3.4-4.3-3.4h-1.2c-2.4,0-4.3,1.6-5.8,4.9l-0.1,0.8c-0.3,2.1,2.8,5.7,9.1,10.8
				c3.4,3.7,4.9,6.7,4.6,9l-0.1,0.9c-0.6,4.3-3.5,7.5-8.9,9.6l-2,0.3h-1.8c-3.7,0-6.4-2.2-8.1-6.7c-0.2-1.3-0.3-2.3-0.2-3.2v-0.3
				l0.3-0.3h4.1c0.2,0,0.3,0.8,0.4,2.4c1.1,2.2,2.5,3.4,4.3,3.4h1.2c2.4,0,4.3-1.6,5.8-4.9l0.1-0.8c0.3-2.1-2.8-5.7-9.1-10.8
				c-3.4-3.7-4.9-6.7-4.6-9l0.1-0.9c0.6-4.3,3.5-7.5,8.9-9.6L111.4,324.7z"/>
			<path id="XMLID_16_" fill="#19DDC6" d="M132.9,314.5h4.1l0.3,0.3l-1.3,9.8h4.3l0.3,0.3L140,329l-0.3,0.3h-4.3l-3.3,25.7
				c-0.1,4.1,1.5,6.1,4.9,6.1h0.3c2.8,0,4.9-1.6,6.3-4.7c0.1-0.7,0.2-1.1,0.4-1.1h4.1l0.3,0.3l-0.1,0.5c-0.5,3.5-2.8,6.4-6.9,8.7
				c-1.5,0.7-2.8,1.1-4.1,1.1h-1.4c-4,0-6.8-2.3-8.4-6.9c-0.2-1.3-0.3-2.3-0.2-3.2l3.4-26.4h-4.3l-0.3-0.3l0.5-4.1l0.3-0.3h4.3
				l1.3-9.8L132.9,314.5z"/>
		</g>
	</g>
	<g id="XMLID_3_">
		<path id="XMLID_10_" fill="#19DDC6" d="M2,167.9c0.5,0,23.7,0,48,0c0.7,0,1.4,0,2,0c24.3,0,47.6,0,48,0c1,0,5.3,0,5.3-4.7
			c0-11.8-3.2-42.2-35-51c-0.7-6.1-4.1-16.1-18.9-16.3l0,0c-0.1,0-0.2,0-0.4,0l0,0l0,0c-0.1,0-0.2,0-0.4,0l0,0
			c-14.9,0.2-18.3,10.2-18.9,16.3c-31.8,8.8-35,39.2-35,51C-3.3,167.9,1,167.9,2,167.9z M50.8,102.1L50.8,102.1c0.1,0,0.1,0,0.2,0
			c0.1,0,0.1,0,0.2,0l0,0c8.3,0.1,9,8.1,9,8.1H60c-2.5-0.3-5.2-0.4-8-0.5l0,0c-0.3,0-0.7,0-1,0l0,0l0,0c-0.3,0-0.7,0-1,0l0,0
			c-2.8,0-5.5,0.2-8,0.5h-0.1C41.8,110.2,42.5,102.2,50.8,102.1z M50,118.8L50,118.8c0.3,0,0.7,0,1,0s0.7,0,1,0l0,0
			c40.6,0.5,43.8,39.6,43.8,39.6H52h-2H6.2C6.2,158.4,9.3,119.3,50,118.8z"/>
		<path id="XMLID_4_" fill="#19DDC6" d="M104.6,184.4c-1.5-5.7-24.5-9.8-53.3-9.8c-26.3,0-48.2,3.8-53,8.8c-1.5,0.9-2.3,3.1-1.1,8.2
			c3.6,14.5,10.5,28,17.8,42.7c5.5,11.6,27.6,43.6,28.3,44.7c3.1,4.5,6.6,5,7.6,5.1l0,0c0,0,0,0,0.1,0s0.1,0,0.1,0l0,0
			c0.9-0.1,4.5-0.6,7.6-5.1c0.7-1.1,22.8-33.1,28.3-44.7c7.3-14.6,14.2-28.1,17.8-42.7C105.7,188.3,105.4,186,104.6,184.4z
			 M67.3,179.7c11,0,19.9,1.9,19.9,4.2c0,2.3-8.9,4.2-19.9,4.2s-19.9-1.9-19.9-4.2C47.4,181.6,56.3,179.7,67.3,179.7z M57.2,191.4
			c0,1.3-4,2.3-9,2.3s-9-1-9-2.3c0-1.3,4-2.3,9-2.3S57.2,190.1,57.2,191.4z M30.6,181.8c7.4,0,13.4,1.6,13.4,3.5s-6,3.5-13.4,3.5
			c-7.4,0-13.4-1.6-13.4-3.5C17.2,183.3,23.2,181.8,30.6,181.8z M51.2,273.6c-8.3-12.1-37.3-53.4-44.1-81.4
			c9.7,3.2,25.7,5.5,43.9,5.5c18.5,0,34.8-2.6,44.4-6C95.3,193,93.2,211,51.2,273.6z"/>
	</g>
</g>
</svg>
